<svg width="200" height="200" viewBox="0 0 200 200" fill="none" xmlns="http://www.w3.org/2000/svg">
<path d="M167.429 102.559H169.929C171.308 102.559 172.429 101.442 172.429 100.059V89.93C172.429 88.5472 171.308 87.43 169.929 87.43H29.9286C28.5491 87.43 27.4286 88.5472 27.4286 89.93V100.059C27.4286 101.442 28.5491 102.559 29.9286 102.559H32.4286V157.299L29.9286 157.301C28.5491 157.301 27.4286 158.421 27.4286 159.801V169.93C27.4286 171.309 28.5491 172.43 29.9286 172.43H169.929C171.308 172.43 172.429 171.309 172.429 169.93V159.797C172.429 158.418 171.308 157.297 169.929 157.297H167.429V102.559ZM32.4286 92.43H167.429V97.5594H32.4286V92.43ZM167.429 167.43H32.4286V162.297H167.429V167.43ZM37.4286 157.297V147.43H62.4286C63.808 147.43 64.9286 146.309 64.9286 144.93C64.9286 143.547 63.808 142.43 62.4286 142.43H37.4286V132.43H69.9286C71.308 132.43 72.4286 131.309 72.4286 129.93C72.4286 128.547 71.308 127.43 69.9286 127.43H37.4286V117.43H62.4286C63.808 117.43 64.9286 116.309 64.9286 114.93C64.9286 113.547 63.808 112.43 62.4286 112.43H37.4286V102.559H162.429V112.43H137.429C136.049 112.43 134.929 113.547 134.929 114.93C134.929 116.309 136.049 117.43 137.429 117.43H162.429V127.43H129.929C128.549 127.43 127.429 128.547 127.429 129.93C127.429 131.309 128.549 132.43 129.929 132.43H162.429V142.43H137.429C136.049 142.43 134.929 143.547 134.929 144.93C134.929 146.309 136.049 147.43 137.429 147.43H162.429V157.297H37.4286ZM114.929 82.4286C121.821 82.4286 127.429 76.8214 127.429 69.9286C127.429 68.4185 127.118 66.9912 126.626 65.6506L171.432 31.9249C172.535 31.0945 172.754 29.5276 171.924 28.4249C171.097 27.3278 169.529 27.1001 168.424 27.9327L123.995 61.3727C121.715 58.9553 118.508 57.4272 114.931 57.4272C108.038 57.4272 102.431 63.0344 102.431 69.9272C102.431 76.8201 108.038 82.4272 114.931 82.4272L114.929 82.4286ZM114.929 62.4286C119.064 62.4286 122.429 65.7934 122.429 69.9286C122.429 74.0637 119.064 77.4286 114.929 77.4286C110.793 77.4286 107.429 74.0637 107.429 69.9286C107.429 65.7934 110.793 62.4286 114.929 62.4286ZM73.2314 65.6506C72.7392 66.991 72.429 68.4184 72.429 69.9286C72.429 76.8214 78.0361 82.4286 84.929 82.4286C91.8219 82.4286 97.429 76.8214 97.429 69.9286C97.429 63.0357 91.8219 57.4286 84.929 57.4286C81.3518 57.4286 78.1444 58.9565 75.8641 61.374L31.4327 27.9312C30.3278 27.0986 28.7597 27.3262 27.9327 28.4234C27.1024 29.526 27.3222 31.093 28.4249 31.9234L73.2314 65.6506ZM84.9289 62.4286C89.064 62.4286 92.4289 65.7934 92.4289 69.9286C92.4289 74.0637 89.064 77.4286 84.9289 77.4286C80.7937 77.4286 77.4289 74.0637 77.4289 69.9286C77.4289 65.7934 80.7937 62.4286 84.9289 62.4286ZM118.949 123.157H118.929L106.161 123.254L102.31 111.081C101.98 110.041 101.016 109.336 99.9252 109.336C98.8348 109.336 97.8705 110.041 97.5401 111.081L93.6895 123.254L80.9215 123.157C79.782 123.157 78.8613 123.847 78.5242 124.883C78.1872 125.921 78.5622 127.056 79.4494 127.691L89.8366 135.116L85.7963 147.229C85.4514 148.261 85.8164 149.402 86.6992 150.041C87.582 150.684 88.7762 150.676 89.6546 150.029L99.9281 142.445L110.198 150.028C110.64 150.355 111.16 150.518 111.684 150.518C112.198 150.518 112.716 150.36 113.153 150.04C114.036 149.4 114.401 148.26 114.056 147.227L110.016 135.115L120.403 127.689C121.29 127.054 121.663 125.919 121.328 124.881C120.99 123.852 120.033 123.157 118.948 123.157L118.949 123.157ZM105.606 132.123C104.713 132.76 104.342 133.905 104.689 134.947L106.812 141.312L101.414 137.325C100.972 137 100.452 136.837 99.9288 136.837C99.4065 136.837 98.8864 137 98.4433 137.325L93.0459 141.312L95.1686 134.947C95.5157 133.905 95.1441 132.76 94.2512 132.123L88.7892 128.217L95.5012 128.27H95.5213C96.6117 128.27 97.576 127.565 97.9064 126.524L99.9309 120.125L101.955 126.524C102.286 127.565 103.25 128.27 104.341 128.27H104.361L111.073 128.217L105.606 132.123Z" fill="#E52150"/>
</svg>
