<svg width="200" height="200" viewBox="0 0 200 200" fill="none" xmlns="http://www.w3.org/2000/svg">
<path d="M159.778 68.798C158.058 56.5212 147.832 47.3656 135.435 47.0134C134.999 46.9932 64.9852 46.997 64.5506 47.0172C52.1788 47.3694 41.9491 56.5247 40.2274 68.8018C39.4305 74.3264 40.7455 79.7725 43.8973 84.1533C47.1099 88.5973 51.9152 91.4668 57.422 92.2419C58.2543 92.3622 59.084 92.4256 59.91 92.4256C68.4384 92.4256 75.8836 86.2572 77.0984 77.7253C77.9244 71.8232 74.8941 65.5166 69.8812 62.7386C67.734 61.5478 62.6881 60.3772 58.2658 62.2749C55.0911 63.6203 52.9059 66.2578 51.9317 69.8631C51.1855 72.6362 51.957 76.0237 53.8877 78.5118C55.646 80.7478 58.1277 81.9755 60.9122 81.9755C60.9705 81.9755 61.025 81.9755 61.0807 81.9666C62.6947 81.9413 64.0033 80.6123 63.9678 78.9857C63.9399 77.3769 62.6351 76.091 61.0351 76.091H60.9857C59.9709 76.2126 59.1728 75.7173 58.5153 74.8875C57.6691 73.7778 57.3917 72.2475 57.6159 71.3898C58.1138 69.5263 59.0765 68.3127 60.5702 67.6794C63.0164 66.6406 66.158 67.3893 67.0372 67.8859C69.9066 69.4847 71.7611 73.4245 71.2724 76.8956C70.4021 83.0448 64.6088 87.3166 58.2215 86.4196C54.3298 85.871 50.9258 83.8441 48.6722 80.7023C46.4008 77.577 45.4772 73.6434 46.046 69.6239C47.3724 60.1988 55.2152 53.1626 64.6964 52.8879L135.292 52.8841C144.774 53.1603 152.638 60.1963 153.96 69.6201C154.543 73.7463 153.545 77.7658 151.159 80.933C148.898 83.9328 145.567 85.8699 141.776 86.4171C135.402 87.3127 129.595 83.0283 128.725 76.8931C128.232 73.422 130.099 69.481 132.949 67.8834C133.838 67.3855 136.983 66.6394 139.426 67.6769C140.915 68.3103 141.877 69.524 142.371 71.3873C142.613 72.245 142.33 73.7779 141.47 74.885C140.842 75.6971 140.054 76.0885 139.086 76.0885H138.964C137.366 76.0885 136.053 77.3743 136.028 78.9832C135.998 80.6086 137.292 81.9375 138.918 81.9641C138.967 81.973 139.03 81.973 139.092 81.973C141.881 81.973 144.374 80.7454 146.122 78.5093C148.053 76.0213 148.808 72.6338 148.057 69.8772C147.086 66.254 144.91 63.619 141.74 62.2737C137.307 60.376 132.258 61.5529 130.117 62.7374C125.1 65.5156 122.064 71.822 122.897 77.7241C124.103 86.2573 131.562 92.4257 140.095 92.4257C140.92 92.4257 141.754 92.3598 142.592 92.2382C147.942 91.4844 152.65 88.7253 155.861 84.4739C159.192 80.0438 160.58 74.4813 159.778 68.7981L159.778 68.798ZM116.616 61.1157H83.3807C81.7528 61.1157 80.4404 62.4269 80.4404 64.0598C80.4404 65.6966 81.7528 67.0077 83.3807 67.0077H116.616C118.241 67.0077 119.564 65.6978 119.564 64.0598C119.561 62.4269 118.241 61.1157 116.617 61.1157H116.616ZM76.8296 93.4098C75.2081 93.4098 73.8944 94.7248 73.8944 96.3489V150.895C73.8944 152.522 75.2055 153.836 76.8296 153.836C78.4664 153.836 79.7712 152.52 79.7712 150.895V96.3489C79.7699 94.7273 78.4638 93.4098 76.8296 93.4098ZM123.154 93.3845C121.517 93.3845 120.209 94.6881 120.209 96.316V150.894C120.209 152.522 121.519 153.836 123.154 153.836C124.782 153.836 126.099 152.519 126.099 150.894V96.316C126.099 94.6906 124.779 93.3845 123.154 93.3845V93.3845ZM107.711 93.3845C106.077 93.3845 104.776 94.6881 104.776 96.316V150.894C104.776 152.522 106.076 153.836 107.711 153.836C109.339 153.836 110.655 152.519 110.655 150.894V96.316C110.655 94.6906 109.34 93.3845 107.711 93.3845V93.3845ZM92.2762 93.3845C90.6546 93.3845 89.3346 94.6881 89.3346 96.316V150.894C89.3346 152.522 90.6534 153.836 92.2762 153.836C93.9091 153.836 95.2127 152.519 95.2127 150.894V96.316C95.2127 94.6906 93.9066 93.3845 92.2762 93.3845V93.3845Z" fill="#E52150"/>
</svg>
