<svg width="200" height="200" viewBox="0 0 200 200" fill="none" xmlns="http://www.w3.org/2000/svg">
<path d="M174.286 94.8575C174.286 88.8921 162.276 87.6701 156.786 87.4201V79.8575H151.786V87.4121C147.851 87.5672 144.183 88.0851 141.296 88.902C140.036 87.9478 138.485 87.3574 136.786 87.3574H119.286V82.3574H126.786C133.679 82.3574 139.286 76.7503 139.286 69.8574V57.3574C139.286 55.9746 138.165 54.8574 136.786 54.8574H134.286V39.3977C137.189 38.362 139.286 35.612 139.286 32.3574C139.286 28.2223 135.921 24.8574 131.786 24.8574C127.651 24.8574 124.286 28.2223 124.286 32.3574C124.286 35.612 126.383 38.362 129.286 39.3977V54.8574H126.786C125.406 54.8574 124.286 55.9746 124.286 57.3574V64.8574C124.286 66.2369 123.163 67.3574 121.786 67.3574H111.508C114.761 64.1777 116.786 59.7526 116.786 54.8574C116.786 45.21 108.935 37.3574 99.2857 37.3574C89.6363 37.3574 81.7857 45.21 81.7857 54.8574C81.7857 59.7526 83.8102 64.1777 87.0637 67.3574H76.7857C75.4085 67.3574 74.2857 66.2369 74.2857 64.8574V57.3574C74.2857 55.9746 73.1652 54.8574 71.7857 54.8574H69.2857V39.3977C72.1886 38.362 74.2857 35.612 74.2857 32.3574C74.2857 28.2223 70.9208 24.8574 66.7857 24.8574C62.6506 24.8574 59.2857 28.2223 59.2857 32.3574C59.2857 35.612 61.3828 38.362 64.2857 39.3977V54.8574H61.7857C60.4062 54.8574 59.2857 55.9746 59.2857 57.3574V69.8574C59.2857 76.7503 64.8928 82.3574 71.7857 82.3574H79.2857V87.3574H61.7857C60.0859 87.3574 58.5357 87.9478 57.2757 88.902C54.3863 88.0851 50.7177 87.5672 46.7857 87.4121V79.8575H41.7857V87.4201C36.2957 87.6701 24.2857 88.8922 24.2857 94.8575C24.2857 96.1153 24.8482 97.2281 25.9252 98.1947C24.6384 99.7103 24.2857 101.202 24.2857 102.358C24.2857 108.37 32.7277 111.75 41.7857 112.275V122.358H31.7857C27.6506 122.358 24.2857 125.722 24.2857 129.858V144.858C24.2857 148.993 27.6506 152.358 31.7857 152.358H41.7857V169.858H34.2857V174.858H54.2857V169.858H46.7857V152.358H56.7857C60.9208 152.358 64.2857 148.993 64.2857 144.858V129.858C64.2857 125.722 60.9208 122.358 56.7857 122.358H46.7857V112.243C50.4486 112.031 53.818 111.365 56.6486 110.295C57.9934 111.565 59.7937 112.358 61.7857 112.358H82.7377C74.6406 117.735 69.2857 126.928 69.2857 137.358C69.2857 145.648 72.6651 153.16 78.1183 158.595L74.3806 171.673C74.1652 172.427 74.3158 173.237 74.7879 173.864C75.2634 174.491 76.0011 174.858 76.7857 174.858H86.7857C87.9007 174.858 88.8828 174.118 89.1886 173.043L91.1406 166.203C93.7355 166.938 96.4609 167.358 99.2858 167.358C102.111 167.358 104.836 166.938 107.429 166.205L109.381 173.045C109.689 174.118 110.671 174.858 111.786 174.858H121.786C122.57 174.858 123.308 174.491 123.781 173.866C124.253 173.238 124.406 172.428 124.189 171.674L120.451 158.596C125.906 153.16 129.286 145.648 129.286 137.358C129.286 126.928 123.931 117.735 115.834 112.358H136.786C138.778 112.358 140.578 111.565 141.923 110.293C144.753 111.365 148.123 112.031 151.786 112.24V122.358H141.786C137.651 122.358 134.286 125.722 134.286 129.858V144.858C134.286 148.993 137.651 152.358 141.786 152.358H151.786V169.858H144.286V174.858H164.286V169.858H156.786V152.358H166.786C170.921 152.358 174.286 148.993 174.286 144.858V129.858C174.286 125.722 170.921 122.358 166.786 122.358H156.786V112.275C165.844 111.747 174.286 108.37 174.286 102.358C174.286 101.202 173.933 99.7103 172.646 98.1947C173.723 97.2282 174.286 96.1177 174.286 94.8576L174.286 94.8575ZM131.786 29.8575C133.163 29.8575 134.286 30.9781 134.286 32.3575C134.286 33.737 133.163 34.8575 131.786 34.8575C130.408 34.8575 129.286 33.737 129.286 32.3575C129.286 30.9781 130.408 29.8575 131.786 29.8575ZM66.7857 29.8575C68.1629 29.8575 69.2857 30.9781 69.2857 32.3575C69.2857 33.737 68.1629 34.8575 66.7857 34.8575C65.4085 34.8575 64.2857 33.737 64.2857 32.3575C64.2857 30.9781 65.4085 29.8575 66.7857 29.8575ZM56.7857 147.358H31.7857C30.4085 147.358 29.2857 146.237 29.2857 144.858V141.195L34.4654 137.743L43.1674 142.093C43.5179 142.271 43.9029 142.358 44.2857 142.358C44.6686 142.358 45.0536 142.271 45.4029 142.095L54.1049 137.745L59.2858 141.195V144.857C59.2858 146.237 58.163 147.357 56.7858 147.357L56.7857 147.358ZM59.2857 129.858V135.188L55.6728 132.778C54.9273 132.28 53.9675 132.22 53.1684 132.623L44.2855 137.063L35.4027 132.623C34.6002 132.224 33.6426 132.28 32.8982 132.778L29.2854 135.188V129.858C29.2854 128.478 30.4081 127.358 31.7854 127.358H56.7854C58.1626 127.358 59.2854 128.478 59.2854 129.858H59.2857ZM166.786 147.358H141.786C140.408 147.358 139.286 146.237 139.286 144.858V141.195L144.465 137.743L153.167 142.093C153.518 142.271 153.903 142.358 154.286 142.358C154.669 142.358 155.054 142.271 155.403 142.095L164.105 137.745L169.286 141.195V144.857C169.286 146.237 168.163 147.357 166.786 147.357L166.786 147.358ZM169.286 129.858V135.188L165.673 132.778C164.927 132.28 163.965 132.22 163.168 132.623L154.286 137.063L145.403 132.623C144.6 132.224 143.64 132.28 142.898 132.778L139.285 135.188V129.858C139.285 128.478 140.408 127.358 141.785 127.358H166.785C168.163 127.358 169.285 128.478 169.285 129.858H169.286ZM167.376 95.5204C165.959 96.0583 164.074 96.5103 161.926 96.8284L162.294 99.3005L161.671 96.8608C161.229 96.9233 160.774 96.9813 160.336 97.0304L159.846 97.0806C159.436 97.123 159.019 97.1576 158.396 97.2056L158.029 97.2335C157.604 97.2637 157.172 97.2837 156.744 97.3005C156.737 97.3005 156.494 97.3105 156.484 97.3105L156.172 97.325C154.93 97.3652 153.66 97.3675 152.372 97.3228L151.837 97.3005C151.4 97.2804 150.964 97.2603 150.529 97.2335L149.974 97.1911C149.551 97.1587 149.134 97.1241 148.727 97.0806L148.247 97.0304C147.787 96.9779 147.337 96.9233 146.9 96.8608L146.537 99.3328L146.642 96.825C145.815 96.7023 145.027 96.5605 144.287 96.3976H144.282L144.281 94.8574C144.281 94.3396 144.229 93.8329 144.126 93.3429C146.986 92.7179 150.584 92.3574 154.286 92.3574C162.084 92.3574 167.116 93.8027 168.828 94.8396C168.518 95.0248 168.056 95.2603 167.376 95.5204V95.5204ZM86.7847 54.8575C86.7847 47.9647 92.3918 42.3575 99.2847 42.3575C106.178 42.3575 111.785 47.9647 111.785 54.8575C111.785 61.7504 106.178 67.3575 99.2847 67.3575C92.3918 67.3575 86.7847 61.7504 86.7847 54.8575ZM81.7847 77.3575H71.7847C67.6495 77.3575 64.2847 73.9927 64.2847 69.8575V59.8575H69.2847V64.8575C69.2847 68.9927 72.6495 72.3575 76.7847 72.3575H121.785C125.92 72.3575 129.285 68.9927 129.285 64.8575V59.8575H134.285V69.8575C134.285 73.9927 130.92 77.3575 126.785 77.3575H116.785C115.405 77.3575 114.285 78.4747 114.285 79.8575V87.3575H84.2847V79.8575C84.2847 78.4747 83.1641 77.3575 81.7847 77.3575ZM44.2847 92.3575C47.9867 92.3575 51.585 92.718 54.4398 93.343C54.3371 93.833 54.2847 94.3397 54.2847 94.8575V96.3999C53.5447 96.5595 52.7545 96.7046 51.9275 96.8274L52.2947 99.2995L51.672 96.8597C51.23 96.9222 50.7747 96.9803 50.3371 97.0294L49.8472 97.0796C49.4376 97.122 49.0202 97.1566 48.3974 97.2046L48.0302 97.2325C47.605 97.2626 47.1731 97.2827 46.7456 97.2995C46.7378 97.2995 46.4956 97.3095 46.4856 97.3095L46.1731 97.324C44.9309 97.3642 43.6608 97.3664 42.3728 97.3218L41.8382 97.2995C41.4007 97.2794 40.9654 97.2593 40.5302 97.2325L39.9755 97.1901C39.5525 97.1577 39.1351 97.1231 38.7277 97.0796L38.2601 97.035C37.8125 96.9825 37.3806 96.93 36.952 96.8675C36.8717 96.8575 36.807 96.8475 36.7221 96.8374L36.6172 97.4177L36.6395 96.8631L36.644 96.8285C34.4967 96.5082 32.6117 96.0562 31.1966 95.5238C30.5135 95.2637 30.0515 95.0282 29.7412 94.8441C31.4544 93.8028 36.4866 92.3575 44.2846 92.3575L44.2847 92.3575ZM44.2847 107.358C34.9801 107.358 29.2847 104.12 29.2847 102.358C29.2847 101.978 29.6552 101.335 30.6374 100.615C30.6653 100.625 30.6999 100.63 30.7278 100.64C31.3851 100.842 32.0927 101.025 32.8383 101.195C33.0403 101.243 33.2479 101.285 33.4588 101.33C34.2389 101.495 35.0459 101.647 35.9108 101.775C35.9108 101.775 36.1753 101.81 36.1787 101.81C36.6709 101.882 37.1764 101.945 37.7166 102.005L38.2188 102.057C38.6686 102.105 39.1284 102.14 39.7836 102.192L40.2133 102.225C40.6787 102.255 41.1507 102.277 41.8461 102.307L42.2289 102.322C42.9019 102.345 43.5893 102.358 44.2847 102.358C44.98 102.358 45.6675 102.345 46.3193 102.323L46.9443 102.295C47.4219 102.275 47.894 102.25 48.3472 102.222L48.98 102.174C49.4454 102.137 49.9052 102.102 50.3572 102.054L50.8795 101.999C51.3974 101.941 51.9018 101.879 52.3918 101.807C52.394 101.807 52.6563 101.773 52.6597 101.773C52.6697 101.77 52.6797 101.768 52.6898 101.768C53.2378 101.686 53.7668 101.599 54.2846 101.504V104.857C54.2846 105.194 54.307 105.53 54.355 105.86C51.5469 106.823 48.0001 107.357 44.2847 107.357L44.2847 107.358ZM59.5892 105.99C59.529 105.875 59.4843 105.758 59.4419 105.64C59.3593 105.39 59.2846 105.135 59.2846 104.858V94.8575C59.2846 94.2972 59.4866 93.882 59.702 93.5595C60.1451 92.853 60.8917 92.3575 61.7846 92.3575H96.7846V107.358H61.7846C60.8225 107.358 60.0066 106.793 59.5892 105.99V105.99ZM86.4441 164.445L84.8995 169.857H80.0992L82.3246 162.077C82.8224 162.42 83.3425 162.727 83.8626 163.04C84.0646 163.162 84.2621 163.29 84.4653 163.407C84.9977 163.711 85.5423 163.989 86.0947 164.259C86.2119 164.317 86.3246 164.388 86.4441 164.445L86.4441 164.445ZM118.47 169.857H113.67L112.122 164.445C112.242 164.387 112.354 164.317 112.474 164.259C113.027 163.987 113.571 163.709 114.104 163.407C114.309 163.289 114.507 163.161 114.706 163.039C115.224 162.727 115.747 162.419 116.244 162.077L118.47 169.857ZM124.285 137.357C124.285 144.805 120.992 151.483 115.809 156.067C115.344 156.48 114.864 156.87 114.372 157.245C114.249 157.337 114.126 157.43 114.001 157.523C113.503 157.885 112.997 158.23 112.477 158.555C112.349 158.635 112.222 158.712 112.092 158.79C111.551 159.113 111.001 159.42 110.439 159.7C110.334 159.752 110.223 159.803 110.118 159.855C109.518 160.143 108.911 160.413 108.288 160.655C105.49 161.737 102.462 162.357 99.2846 162.357C96.1072 162.357 93.0792 161.737 90.2823 160.652C89.6596 160.412 89.0502 160.142 88.452 159.852C88.3448 159.799 88.2366 159.749 88.1317 159.697C87.5692 159.414 87.019 159.11 86.4788 158.787C86.3493 158.71 86.221 158.632 86.0937 158.552C85.5736 158.227 85.0658 157.882 84.5692 157.519C84.4442 157.429 84.3214 157.334 84.1986 157.241C83.7064 156.868 83.2288 156.477 82.7611 156.064C77.5769 151.482 74.2846 144.805 74.2846 137.357C74.2846 123.573 85.5 112.357 99.2846 112.357C113.069 112.357 124.285 123.573 124.285 137.357L124.285 137.357ZM136.785 107.357H101.785V92.3575H136.785C137.678 92.3575 138.424 92.853 138.867 93.5595C139.083 93.882 139.285 94.2972 139.285 94.8575V104.857C139.285 105.135 139.21 105.39 139.127 105.64C139.085 105.757 139.042 105.875 138.98 105.99C138.563 106.793 137.747 107.358 136.785 107.358V107.357ZM154.285 107.357C150.569 107.357 147.022 106.823 144.214 105.86C144.262 105.53 144.285 105.195 144.285 104.857V101.503C144.799 101.597 145.333 101.688 145.88 101.767C145.89 101.769 145.9 101.772 145.91 101.772C145.91 101.772 146.174 101.806 146.178 101.806C146.67 101.879 147.175 101.941 147.69 101.998C147.698 102 147.704 102 147.714 102L148.217 102.053C148.666 102.101 149.126 102.135 149.781 102.188L150.211 102.22C150.676 102.25 151.149 102.273 151.844 102.303L152.227 102.317C152.902 102.345 153.589 102.358 154.285 102.358C154.98 102.358 155.667 102.345 156.319 102.323L156.944 102.295C157.422 102.275 157.894 102.25 158.347 102.222L158.98 102.174C159.445 102.137 159.905 102.102 160.357 102.054L160.88 101.999C161.397 101.941 161.902 101.879 162.392 101.807C162.394 101.807 162.656 101.773 162.66 101.773C163.525 101.645 164.329 101.493 165.109 101.327C165.322 101.283 165.529 101.237 165.734 101.192C166.472 101.023 167.18 100.842 167.832 100.64C167.862 100.63 167.899 100.622 167.929 100.615C168.914 101.335 169.285 101.978 169.285 102.358C169.285 104.12 163.589 107.358 154.285 107.358L154.285 107.357Z" fill="#E52150"/>
<path d="M99.2856 147.357C104.8 147.357 109.286 142.872 109.286 137.357C109.286 131.843 104.8 127.357 99.2856 127.357C93.7711 127.357 89.2856 131.843 89.2856 137.357C89.2856 142.872 93.7711 147.357 99.2856 147.357ZM99.2856 132.357C102.043 132.357 104.286 134.6 104.286 137.357C104.286 140.115 102.043 142.357 99.2856 142.357C96.5278 142.357 94.2856 140.115 94.2856 137.357C94.2856 134.6 96.5278 132.357 99.2856 132.357Z" fill="#E52150"/>
<path d="M163.169 25.1197C162.32 25.5449 161.786 26.4098 161.786 27.3574V40.3171C161.001 40.0369 160.165 39.8573 159.286 39.8573C155.151 39.8573 151.786 43.2221 151.786 47.3573C151.786 51.4924 155.151 54.8573 159.286 54.8573C163.421 54.8573 166.786 51.4924 166.786 47.3573V32.3573L172.786 36.8573L175.786 32.8573L165.786 25.3573C165.026 24.7869 164.013 24.6999 163.169 25.1195V25.1197ZM159.286 49.8574C157.908 49.8574 156.786 48.7368 156.786 47.3574C156.786 45.9779 157.908 44.8574 159.286 44.8574C160.663 44.8574 161.786 45.9779 161.786 47.3574C161.786 48.7368 160.663 49.8574 159.286 49.8574Z" fill="#E52150"/>
<path d="M31.7857 72.3574C35.9208 72.3574 39.2857 68.9925 39.2857 64.8574V49.8574L45.2857 54.3574L48.2857 50.3574L38.2857 42.8574C37.5256 42.2871 36.5156 42.2023 35.6685 42.6197C34.8203 43.0449 34.2857 43.9099 34.2857 44.8574V57.8171C33.5011 57.537 32.6652 57.3573 31.7857 57.3573C27.6506 57.3573 24.2857 60.7221 24.2857 64.8573C24.2857 68.9924 27.6506 72.3573 31.7857 72.3573V72.3574ZM31.7857 62.3574C33.1629 62.3574 34.2857 63.4779 34.2857 64.8574C34.2857 66.2369 33.1629 67.3574 31.7857 67.3574C30.4085 67.3574 29.2857 66.2369 29.2857 64.8574C29.2857 63.4779 30.4085 62.3574 31.7857 62.3574Z" fill="#E52150"/>
<path d="M66.7856 97.3574H71.7856V102.357H66.7856V97.3574Z" fill="#E52150"/>
<path d="M76.7856 97.3574H81.7856V102.357H76.7856V97.3574Z" fill="#E52150"/>
<path d="M86.7856 97.3574H91.7856V102.357H86.7856V97.3574Z" fill="#E52150"/>
<path d="M106.786 97.3574H111.786V102.357H106.786V97.3574Z" fill="#E52150"/>
<path d="M116.786 97.3574H121.786V102.357H116.786V97.3574Z" fill="#E52150"/>
<path d="M126.786 97.3574H131.786V102.357H126.786V97.3574Z" fill="#E52150"/>
</svg>
