<svg width="200" height="200" viewBox="0 0 200 200" fill="none" xmlns="http://www.w3.org/2000/svg">
<path d="M55.8438 119.617C53.7712 119.617 52.0938 117.939 52.0938 115.867V84.1583C52.0938 82.0879 53.7712 80.4083 55.8438 80.4083C57.9163 80.4083 59.5938 82.0879 59.5938 84.1583V115.867C59.5938 117.937 57.9163 119.617 55.8438 119.617Z" fill="#E52150"/>
<path d="M85.3666 155.429C83.294 155.429 81.6166 153.751 81.6166 151.679V48.3472C81.6166 46.2768 83.294 44.5972 85.3666 44.5972C87.4391 44.5972 89.1166 46.2768 89.1166 48.3472V151.679C89.1166 153.749 87.4369 155.429 85.3666 155.429Z" fill="#E52150"/>
<path d="M114.889 130.823C112.819 130.823 111.139 129.145 111.139 127.073V72.9441C111.139 70.8737 112.819 69.1941 114.889 69.1941C116.96 69.1941 118.639 70.8737 118.639 72.9441V127.073C118.639 129.145 116.96 130.823 114.889 130.823Z" fill="#E52150"/>
<path d="M144.418 117.977C142.348 117.977 140.668 116.299 140.668 114.227V85.7995C140.668 83.7292 142.348 82.0495 144.418 82.0495C146.488 82.0495 148.168 83.7292 148.168 85.7995V114.227C148.168 116.296 146.487 117.977 144.418 117.977Z" fill="#E52150"/>
<path d="M173.938 114.151C171.868 114.151 170.188 112.474 170.188 110.401V89.6211C170.188 87.5508 171.868 85.8711 173.938 85.8711C176.008 85.8711 177.688 87.5508 177.688 89.6211V110.401C177.688 112.471 176.009 114.151 173.938 114.151Z" fill="#E52150"/>
<path d="M26.3214 111.414C24.2489 111.414 22.5714 109.737 22.5714 107.664V92.3595C22.5714 90.2892 24.2489 88.6095 26.3214 88.6095C28.394 88.6095 30.0714 90.2892 30.0714 92.3595V107.664C30.0714 109.737 28.3917 111.414 26.3214 111.414Z" fill="#E52150"/>
</svg>
