<svg width="200" height="200" viewBox="0 0 200 200" fill="none" xmlns="http://www.w3.org/2000/svg">
<path d="M100.225 111.734C88.3443 111.734 78.6792 121.399 78.6792 133.281C78.6792 145.161 88.3443 154.826 100.225 154.826C112.105 154.826 121.771 145.161 121.771 133.281C121.771 121.399 112.105 111.734 100.225 111.734ZM100.225 150.139C90.9292 150.139 83.3666 142.577 83.3666 133.281C83.3666 123.985 90.9292 116.422 100.225 116.422C109.521 116.422 117.083 123.984 117.083 133.281C117.083 142.577 109.521 150.139 100.225 150.139Z" fill="#E52150"/>
<path d="M153.222 127.622H131.117C130.243 122.84 128.282 118.433 125.501 114.666H158.067V123.716C158.067 125.011 159.116 126.06 160.411 126.06C161.705 126.06 162.754 125.011 162.754 123.716V108.845C162.754 104.107 158.899 100.252 154.161 100.252H124.223C120.419 100.252 117.185 102.738 116.058 106.17C112.043 103.815 107.46 102.328 102.569 101.965V84.9472H114.728L115.99 90.8477C116.833 94.7863 120.364 97.6446 124.388 97.6446C124.992 97.6446 125.598 97.5799 126.191 97.4526L139.57 94.5898C141.814 94.1099 143.737 92.784 144.985 90.8566C146.233 88.9292 146.656 86.6323 146.174 84.3878L142.715 68.2169C141.872 64.2783 138.341 61.4201 134.317 61.4201C133.714 61.4201 133.106 61.4848 132.513 61.612L119.134 64.4749C116.89 64.9548 114.966 66.2807 113.719 68.208C112.471 70.1344 112.048 72.4323 112.529 74.6769L113.724 80.2595L102.57 80.2583V77.1323C102.57 75.8377 101.521 74.7886 100.226 74.7886C98.9313 74.7886 97.8822 75.8377 97.8822 77.1323V80.2583H85.5028L86.697 74.6758C87.1769 72.4313 86.755 70.1335 85.5072 68.2069C84.2595 66.2806 82.3364 64.9546 80.0921 64.4738L66.7138 61.6109C66.1201 61.4837 65.5129 61.4189 64.9102 61.4189C60.8868 61.4189 57.3557 64.2772 56.5128 68.2158L53.0531 84.3867C52.062 89.0207 55.0252 93.5964 59.6591 94.5887L73.0374 97.4515C73.6311 97.5788 74.2383 97.6435 74.841 97.6435C78.8644 97.6435 82.3955 94.7852 83.2384 90.8466L84.5007 84.9461H97.8824V101.964C94.3555 102.225 90.9895 103.072 87.8789 104.407C86.3287 101.827 83.5721 100.251 80.5207 100.251L50.5835 100.252C45.8447 100.252 41.9898 104.107 41.9898 108.845V123.716C41.9898 128.455 45.8447 132.31 50.5835 132.31H55.1449V144.515C55.1449 145.81 56.1941 146.859 57.4887 146.859H71.9107C73.9922 151.18 77.0336 154.956 80.7578 157.906L68.1584 171.448C67.2767 172.396 67.3303 173.879 68.2778 174.761C68.7287 175.18 69.3024 175.389 69.8738 175.389C70.5021 175.389 71.1283 175.138 71.5903 174.641L84.6863 160.564C89.2712 163.186 94.5757 164.686 100.224 164.686C105.427 164.686 110.338 163.412 114.663 161.163L127.202 174.641C127.664 175.138 128.29 175.389 128.919 175.389C129.49 175.389 130.063 175.181 130.515 174.761C131.462 173.879 131.516 172.396 130.634 171.448L118.722 158.643C122.889 155.597 126.281 151.551 128.539 146.859H143.403C144.697 146.859 145.747 145.81 145.747 144.515V132.31H153.221C154.515 132.31 155.565 131.261 155.565 129.966C155.566 128.671 154.517 127.622 153.222 127.622L153.222 127.622ZM141.05 88.3109C140.483 89.187 139.609 89.7897 138.588 90.0073C138.588 90.0073 124.662 92.957 124.387 92.957C122.56 92.957 120.956 91.6568 120.573 89.8667L118.211 78.8276L139.222 74.2996L141.59 85.3699C141.809 86.39 141.617 87.4346 141.05 88.3107L141.05 88.3109ZM117.654 70.7563C118.221 69.8802 119.095 69.2775 120.116 69.0599L133.494 66.197C133.766 66.139 134.043 66.1089 134.318 66.1089C136.145 66.1089 137.749 67.4091 138.131 69.1991L138.242 69.7159L117.231 74.2439L117.114 73.6959C116.895 72.6769 117.087 71.6323 117.654 70.7562L117.654 70.7563ZM64.908 66.11C65.1825 66.11 65.4593 66.139 65.7316 66.1982L79.1099 69.0611C80.13 69.2798 81.005 69.8825 81.572 70.7575C82.1389 71.6336 82.3309 72.6771 82.1121 73.6983L81.995 74.2463L60.9838 69.7183L61.0943 69.2016C61.4771 67.4092 63.0809 66.1102 64.908 66.1102L64.908 66.11ZM74.8388 92.9583C74.5643 92.9583 60.638 90.0086 60.638 90.0086C58.5319 89.5577 57.1848 87.4773 57.6357 85.3715L60.004 74.3012L81.0152 78.8292L78.6524 89.8683C78.2685 91.6585 76.6647 92.9586 74.8387 92.9586L74.8388 92.9583ZM120.316 108.847C120.316 106.693 122.068 104.94 124.222 104.94H154.159C156.313 104.94 158.066 106.693 158.066 108.847V109.981L121.254 109.979C120.941 109.696 120.62 109.418 120.294 109.148C120.308 109.049 120.317 108.949 120.317 108.847H120.316ZM50.5817 104.94H80.5188C81.8068 104.94 82.9787 105.559 83.704 106.585C82.0991 107.582 80.5891 108.719 79.1928 109.979L46.6757 109.981V108.847C46.6757 106.693 48.4279 104.94 50.582 104.94L50.5817 104.94ZM46.6754 123.717V114.667H74.9465C72.1653 118.434 70.2043 122.84 69.3305 127.623H50.5817C48.4277 127.623 46.6754 125.871 46.6754 123.717ZM59.8305 142.173V132.311H68.8351C68.8251 132.633 68.8184 132.957 68.8184 133.283C68.8184 136.37 69.2682 139.353 70.1019 142.172L59.8305 142.173ZM100.225 160C85.4937 160 73.5083 148.014 73.5083 133.283C73.5083 118.551 85.4937 106.567 100.225 106.567C114.956 106.567 126.941 118.552 126.941 133.283C126.941 148.014 114.956 160 100.225 160ZM141.059 142.173H130.345C131.179 139.352 131.628 136.369 131.628 133.283C131.628 132.958 131.622 132.635 131.612 132.311H141.059L141.059 142.173Z" fill="#E52150"/>
<path d="M33.7506 147.071V88.0795C33.7506 86.7848 32.7015 85.7357 31.4068 85.7357C30.1122 85.7357 29.0631 86.7848 29.0631 88.0795V147.245L20.4179 159.711C19.6802 160.774 19.9447 162.235 21.0083 162.972C22.072 163.709 23.5318 163.445 24.2706 162.381L31.4569 152.018L38.5349 162.369C38.9891 163.033 39.7235 163.39 40.4713 163.39C40.9267 163.39 41.3876 163.257 41.7927 162.981C42.8608 162.25 43.1353 160.792 42.4043 159.723L33.7506 147.071Z" fill="#E52150"/>
<path d="M47.042 48.4957L46.3188 51.498L30.3879 59.2C29.5788 59.5917 29.0643 60.4109 29.0643 61.3105V77.1765C29.0643 78.4711 30.1134 79.5202 31.408 79.5202C32.7027 79.5202 33.7518 78.4711 33.7518 77.1765V62.7802L49.3566 55.2345C49.9883 54.9287 50.4504 54.3561 50.6144 53.6742L51.6089 49.5525C57.5309 50.7813 63.3243 51.4532 68.082 51.4532C75.7606 51.4532 80.0317 49.769 80.7774 46.4474C82.3109 39.6126 66.7686 33.8983 56.0229 31.25L56.8655 27.7546C57.1691 26.4957 56.3945 25.23 55.1367 24.9265C53.8778 24.6229 52.6121 25.3974 52.3086 26.6553L51.4459 30.2356C45.8533 29.1284 40.419 28.5257 35.9136 28.5257C28.235 28.5257 23.9639 30.2099 23.2181 33.5314C21.7271 40.1732 36.3544 45.7546 47.0419 48.4957L47.042 48.4957ZM69.8466 40.9331C74.3531 43.1184 75.8589 44.8026 76.1457 45.4086C75.6089 45.8516 73.4113 46.7646 68.082 46.7646C63.6723 46.7646 58.2706 46.1374 52.708 44.9923L54.9234 35.806C60.5908 37.191 65.8343 38.988 69.8463 40.9331H69.8466ZM35.9123 33.2143C40.0729 33.2143 45.1166 33.7723 50.3454 34.7969L48.1401 43.9409C42.8309 42.5893 37.9392 40.884 34.1478 39.0457C29.6412 36.8605 28.1343 35.1763 27.8486 34.5703C28.3855 34.1272 30.583 33.2143 35.9123 33.2143H35.9123Z" fill="#E52150"/>
<path d="M179.585 159.711L170.94 147.245V61.3083C170.94 60.4099 170.425 59.5895 169.616 59.1978L153.685 51.4947L152.962 48.4924C163.651 45.7513 178.277 40.1698 176.787 33.5281C176.041 30.2067 171.77 28.5224 164.091 28.5224C159.586 28.5224 154.152 29.1251 148.559 30.2322L147.696 26.6519C147.393 25.393 146.126 24.6195 144.868 24.9231C143.609 25.2267 142.836 26.4923 143.139 27.7512L143.982 31.2467C133.237 33.8962 117.694 39.6095 119.228 46.4441C119.973 49.7655 124.244 51.4487 131.923 51.4498H131.924C136.681 51.4498 142.474 50.7768 148.396 49.5491L149.391 53.6709C149.555 54.3539 150.017 54.9253 150.648 55.2311L166.252 62.778V147.069L157.599 159.722C156.868 160.79 157.143 162.249 158.211 162.98C158.616 163.257 159.076 163.39 159.532 163.39C160.28 163.39 161.015 163.032 161.469 162.368L168.477 152.12C168.518 152.122 168.557 152.125 168.597 152.125C168.605 152.125 168.612 152.124 168.621 152.124L175.734 162.381C176.472 163.444 177.931 163.709 178.997 162.971C180.058 162.233 180.321 160.773 179.585 159.71L179.585 159.711ZM164.091 33.2137C169.421 33.2137 171.618 34.1267 172.155 34.5697C171.869 35.1758 170.363 36.8599 165.856 39.0452C162.065 40.8833 157.173 42.5897 151.864 43.9403L149.658 34.7963C154.887 33.7718 159.931 33.2137 164.091 33.2137H164.091ZM131.923 46.7651C126.594 46.7651 124.396 45.8522 123.859 45.4091C124.145 44.8031 125.652 43.1189 130.158 40.9337C134.171 38.9884 139.413 37.1914 145.081 35.8065L147.297 44.9928C141.734 46.1379 136.332 46.7651 131.923 46.7651H131.923Z" fill="#E52150"/>
</svg>
