<svg width="200" height="200" viewBox="0 0 200 200" fill="none" xmlns="http://www.w3.org/2000/svg">
<path d="M120.607 63.3928C109.357 61.1428 104.857 52.6428 104.607 52.3928C103.046 49.4649 98.6072 50.5745 98.6072 53.8928V124.143C95.1072 120.893 90.1072 118.643 84.8572 118.643C73.8572 118.643 64.8572 127.643 64.8572 138.643C64.8572 149.643 73.8572 158.643 84.8572 158.643C95.6072 158.643 104.357 150.143 104.857 139.643V139.393V62.6443C108.107 65.3943 112.857 68.3943 119.107 69.6443C128.857 71.6443 128.607 80.1443 128.607 80.8943C128.607 82.6443 129.857 84.1443 131.607 84.3943C133.357 84.6443 134.857 83.1443 135.107 81.3943C135.607 76.3943 133.107 65.8943 120.607 63.3943V63.3928ZM84.8586 152.644C77.3586 152.644 71.1086 146.644 71.1086 138.894C71.1086 131.394 77.1086 125.144 84.8586 125.144C92.6086 125.144 98.6086 131.144 98.6086 138.894C98.6086 146.394 92.6086 152.644 84.8586 152.644Z" fill="#E52150"/>
</svg>
